<?xml version="1.0" encoding="utf-8"?>
<!-- Generator: Adobe Illustrator 19.2.1, SVG Export Plug-In . SVG Version: 6.00 Build 0)  -->
<svg version="1.1" id="Layer_1" xmlns="http://www.w3.org/2000/svg" xmlns:xlink="http://www.w3.org/1999/xlink" x="0px" y="0px"
	 viewBox="0 0 100 100" style="enable-background:new 0 0 100 100;" xml:space="preserve">
<style type="text/css">
	.st0{fill:none;stroke:#000000;stroke-width:5;stroke-miterlimit:10;}
	.st1{fill:none;stroke:#000000;stroke-width:4.4683;stroke-miterlimit:10;}
</style>
<path class="st0" d="M92.9,55.5c1.7-3,2.7-7.7,2.7-11.1c0-9.3-7.6-18.1-16.9-18.1c-0.3,0-0.6-0.1-0.9-0.1
	C74.9,16.3,65.7,8.9,54.9,8.9c-8.7,0-16.3,4.5-20.5,11.5c-5.6,1-10.5,4.1-13.8,8.5c-0.8-0.1-1.6-0.3-2.5-0.3
	c-8,0-14.5,8.5-14.5,16.5c0,3.1,1,7.4,2.7,10.4H92.9z"/>
<line class="st1" x1="20.1" y1="62.6" x2="8.2" y2="83.7"/>
<line class="st1" x1="40.6" y1="62.6" x2="28.6" y2="83.7"/>
<line class="st1" x1="63.3" y1="62.6" x2="51.4" y2="83.7"/>
<line class="st1" x1="85.5" y1="62.6" x2="73.6" y2="83.7"/>
</svg>
