<?xml version="1.0" encoding="utf-8"?>
<!-- Generator: Adobe Illustrator 19.2.1, SVG Export Plug-In . SVG Version: 6.00 Build 0)  -->
<svg version="1.1" id="Layer_1" xmlns="http://www.w3.org/2000/svg" xmlns:xlink="http://www.w3.org/1999/xlink" x="0px" y="0px"
	 viewBox="0 0 100 100" style="enable-background:new 0 0 100 100;" xml:space="preserve">
<style type="text/css">
	.st0{fill:none;stroke:#000000;stroke-width:5;stroke-miterlimit:10;}
	.st1{fill:none;stroke:#000000;stroke-width:2.9065;stroke-miterlimit:10;}
	.st2{fill:none;stroke:#000000;stroke-width:2.8151;stroke-miterlimit:10;}
	.st3{fill:none;stroke:#000000;stroke-width:3;stroke-miterlimit:10;}
</style>
<path class="st0" d="M92.9,56.2c1.7-3,2.7-7.7,2.7-11.1C95.6,35.8,88,27,78.7,27c-0.3,0-0.6-0.1-0.9-0.1C74.9,17,65.7,9.6,54.9,9.6
	c-8.7,0-16.3,4.5-20.5,11.5c-5.6,1-10.5,4.1-13.8,8.5c-0.8-0.1-1.6-0.3-2.5-0.3c-8,0-14.5,8.5-14.5,16.5c0,3.1,1,7.4,2.7,10.4H92.9z
	"/>
<line class="st1" x1="20.9" y1="65.2" x2="20.9" y2="88.1"/>
<line class="st2" x1="33.1" y1="76.7" x2="9.2" y2="76.7"/>
<line class="st3" x1="14" y1="69.7" x2="27.4" y2="82.8"/>
<line class="st3" x1="27.6" y1="69.5" x2="14.7" y2="83"/>
<line class="st1" x1="79.8" y1="64.7" x2="79.8" y2="87.7"/>
<line class="st2" x1="92.1" y1="76.2" x2="68.1" y2="76.2"/>
<line class="st3" x1="73" y1="69.2" x2="86.3" y2="82.4"/>
<line class="st3" x1="86.5" y1="69" x2="73.7" y2="82.5"/>
<line class="st1" x1="50.4" y1="64.8" x2="50.4" y2="87.7"/>
<line class="st2" x1="62.6" y1="76.2" x2="38.6" y2="76.2"/>
<line class="st3" x1="43.5" y1="69.3" x2="56.9" y2="82.4"/>
<line class="st3" x1="57" y1="69" x2="44.2" y2="82.5"/>
</svg>
